<svg id="Capa_1" enable-background="new 0 0 512 512" height="512" viewBox="0 0 512 512" width="512" xmlns="http://www.w3.org/2000/svg" xmlns:xlink="http://www.w3.org/1999/xlink"><linearGradient id="SVGID_1_" gradientUnits="userSpaceOnUse" x1="256" x2="256" y1="481" y2="31"><stop offset="0" stop-color="#fd5900"/><stop offset="1" stop-color="#ffde00"/></linearGradient><linearGradient id="SVGID_2_" gradientUnits="userSpaceOnUse" x1="256" x2="256" y1="406" y2="106"><stop offset="0" stop-color="#ffe59a"/><stop offset="1" stop-color="#ffffd5"/></linearGradient><g><g><g><path d="m287 31h-62c-124.072 0-225 100.928-225 225 0 55.093 19.658 107.139 55.664 148.154l-51.27 51.24c-4.277 4.292-5.566 10.737-3.252 16.348 2.315 5.596 7.794 9.258 13.858 9.258h272c124.072 0 225-100.928 225-225s-100.928-225-225-225z" fill="url(#SVGID_1_)"/></g></g><g><g><path d="m256 106c-82.8 0-150 67.2-150 150s67.2 150 150 150 150-67.2 150-150-67.2-150-150-150zm0 240c-8.401 0-15-6.601-15-15 0-8.401 6.599-15 15-15s15 6.599 15 15c0 8.399-6.599 15-15 15zm15-92.701v17.701c0 8.399-6.599 15-15 15s-15-6.601-15-15v-17.701c0-12.6 8.101-24 20.1-28.2 6-2.1 9.9-7.8 9.9-14.099 0-8.401-6.599-15-15-15s-15 6.599-15 15c0 8.399-6.599 15-15 15s-15-6.601-15-15c0-24.9 20.1-45 45-45s45 20.1 45 45c0 18.9-12.001 36-30 42.299z" fill="url(#SVGID_2_)"/></g></g></g></svg>