<?xml version="1.0" encoding="utf-8"?>
<svg viewBox="0 0 500 500" xmlns="http://www.w3.org/2000/svg" xmlns:bx="https://boxy-svg.com">
  <defs>
    <linearGradient gradientUnits="userSpaceOnUse" x1="257.484" y1="86.206" x2="257.484" y2="213.888" id="gradient-0" gradientTransform="matrix(2.657379, 2.568778, -2.57239, 2.661111, -67.128922, -831.474243)">
      <stop offset="0" style="stop-color: rgb(250, 88, 146);"/>
      <stop offset="1" style="stop-color: rgb(253, 87, 108);"/>
    </linearGradient>
  </defs>
  <ellipse style="fill-rule: nonzero; fill: url(#gradient-0);" cx="250" cy="250" rx="244.449" ry="235.956"/>
  <g transform="matrix(3.675067, 0, 0, 3.675067, 66.212494, 46.243446)" style="" bx:origin="0.5 0.517">
    <path d="M49.346,63.354c-0.028,0-0.056,0-0.084,0c-4.068-0.024-7.856-1.882-10.667-5.229c-0.302-0.36-0.255-0.896,0.104-1.198   c0.358-0.302,0.896-0.255,1.198,0.104c2.483,2.96,5.813,4.602,9.375,4.623c0.023,0.001,0.048,0.001,0.072,0.001   c3.663,0,7.131-1.688,9.773-4.761c0.307-0.355,0.843-0.395,1.199-0.09c0.355,0.307,0.396,0.843,0.09,1.199   C57.437,61.456,53.511,63.354,49.346,63.354z" style="fill: rgb(255, 255, 255);"/>
    <path d="M93.024,92.725c-0.004,0.001-0.012,0.001-0.02,0H6.995c-0.445,0-0.867-0.197-1.152-0.539   c-0.284-0.342-0.403-0.793-0.323-1.23c1.414-7.745,4.056-21.002,5.864-22.763c0.789-0.768,9.319-4.287,25.359-10.462   c-3.427-4.452-5.035-9.586-5.602-11.751c-1.374-1.271-2.396-3.679-2.401-5.805c-0.005-1.537,0.504-2.882,1.45-3.886   c-0.021-0.058-0.044-0.118-0.067-0.182c-1.138-3.075-4.159-11.244-0.562-19.226c2.509-5.566,11.22-9.605,20.714-9.605   c9.37,0,16.687,4.003,19.571,10.708c1.369,3.181,0.588,9.333-0.328,15.362c-0.143,0.935-0.299,1.964-0.36,2.547   c1.02,1.121,1.539,2.688,1.474,4.49c-0.077,2.139-0.96,4.345-2.166,5.533c-0.841,3.268-2.958,7.795-6.104,11.642   c7.783,2.755,24.714,8.862,26.604,10.522c1.98,1.74,4.271,14.841,5.483,22.675c0.049,0.147,0.074,0.306,0.074,0.469   C94.524,92.053,93.854,92.725,93.024,92.725z M8.799,89.725H91.25c-1.404-8.729-3.363-18.216-4.325-19.451   c-1.325-1.044-15.258-6.271-27.659-10.626c-0.481-0.169-0.844-0.571-0.962-1.067c-0.118-0.497,0.024-1.02,0.378-1.388   c3.74-3.889,6.238-9.168,6.977-12.427c0.081-0.359,0.292-0.677,0.593-0.891c0.537-0.383,1.323-1.938,1.383-3.6   c0.029-0.804-0.105-1.902-0.911-2.569c-0.801-0.662-0.717-1.215-0.17-4.811c0.588-3.867,1.683-11.066,0.538-13.726   c-3.453-8.027-12.91-8.894-16.815-8.894c-8.235,0-15.965,3.369-17.979,7.838c-3.092,6.861-0.38,14.192,0.641,16.953   c0.447,1.208,0.834,2.252-0.196,2.967c-0.676,0.469-1.003,1.165-1,2.132c0.004,1.593,0.955,3.299,1.583,3.729   c0.306,0.209,0.523,0.525,0.61,0.887c0.431,1.789,2.166,7.984,6.413,12.575c0.339,0.365,0.474,0.874,0.36,1.358   c-0.113,0.485-0.459,0.882-0.924,1.061c-9.327,3.58-24.515,9.547-26.34,10.613C12.551,71.748,10.454,80.934,8.799,89.725z" style="fill: rgb(255, 255, 255);"/>
    <path d="M31.297,38.175c-0.436,0-0.807-0.332-0.846-0.774c-0.042-0.468,0.304-0.88,0.771-0.922l1.146-0.102l3.955-15.656   c0.073-0.291,0.296-0.521,0.584-0.606c0.287-0.087,0.6-0.011,0.82,0.193c0.05,0.046,5.095,4.664,12.247,4.664   c0.016,0,0.03,0,0.047,0c8.854-0.025,10.963-4.84,11.048-5.045c0.115-0.275,0.367-0.474,0.662-0.517   c0.296-0.048,0.594,0.067,0.782,0.299c2.803,3.419,3.847,12.864,4.098,15.636l1.021,0.041c0.47,0.02,0.834,0.415,0.815,0.884   c-0.019,0.47-0.427,0.825-0.884,0.815l-1.771-0.072c-0.433-0.018-0.782-0.357-0.813-0.788c-0.008-0.109-0.747-10.007-3.091-14.382   c-1.32,1.788-4.622,4.808-11.862,4.828c-0.017,0-0.035,0-0.053,0c-5.89,0.001-10.368-2.771-12.328-4.239L33.87,37.378   c-0.089,0.351-0.389,0.606-0.749,0.639l-1.748,0.155C31.348,38.174,31.322,38.175,31.297,38.175z" style="fill: rgb(255, 255, 255);"/>
    <path d="M49.448,69.934c-3.814,0-4.228-2.506-4.627-4.929l-0.076-0.458c-0.079-0.463,0.232-0.902,0.695-0.98   c0.465-0.072,0.902,0.234,0.98,0.695l0.078,0.466c0.43,2.605,0.692,3.507,2.949,3.507c2.72,0,2.898-0.434,3.48-3.824   c0.08-0.463,0.521-0.769,0.981-0.694c0.463,0.079,0.773,0.519,0.694,0.981C53.997,68.234,53.524,69.934,49.448,69.934z" style="fill: rgb(255, 255, 255);"/>
    <path d="M41.668,91.592c-0.074,0-0.148-0.01-0.223-0.03c-0.453-0.122-0.722-0.589-0.599-1.042l5.916-21.858   c0.122-0.454,0.595-0.722,1.042-0.599c0.453,0.122,0.722,0.589,0.599,1.042l-5.916,21.858   C42.385,91.342,42.042,91.592,41.668,91.592z" style="fill: rgb(255, 255, 255);"/>
    <path d="M57.259,91.592c-0.375,0-0.718-0.251-0.82-0.631l-5.859-21.858c-0.121-0.453,0.147-0.919,0.602-1.041   c0.446-0.119,0.918,0.147,1.041,0.602l5.859,21.858c0.121,0.453-0.147,0.919-0.602,1.041   C57.406,91.582,57.332,91.592,57.259,91.592z" style="fill: rgb(255, 255, 255);"/>
    <path d="M39.865,73.174c-0.06,0-0.12-0.006-0.18-0.019c-0.329-0.071-0.585-0.33-0.652-0.659l-2.723-13.184   c-0.096-0.46,0.2-0.909,0.66-1.004c0.459-0.098,0.909,0.201,1.004,0.66l2.334,11.301l6.132-8.426   c0.276-0.38,0.809-0.464,1.188-0.188c0.38,0.276,0.464,0.808,0.188,1.188l-7.263,9.98C40.391,73.047,40.134,73.174,39.865,73.174z" style="fill: rgb(255, 255, 255);"/>
    <path d="M59.525,73.174c-0.269,0-0.525-0.127-0.688-0.35l-7.263-9.98c-0.276-0.38-0.192-0.911,0.188-1.188   c0.378-0.276,0.91-0.192,1.188,0.188l6.132,8.426l2.334-11.301c0.095-0.459,0.548-0.759,1.004-0.66   c0.46,0.095,0.756,0.544,0.66,1.004l-2.723,13.184c-0.067,0.329-0.323,0.588-0.652,0.659   C59.646,73.168,59.585,73.174,59.525,73.174z" style="fill: rgb(255, 255, 255);"/>
  </g>
</svg>